<svg width="20" height="20" viewBox="0 0 20 20" fill="none" xmlns="http://www.w3.org/2000/svg">
<path fill-rule="evenodd" clip-rule="evenodd" d="M4.12085 0.0489507C3.8399 0.173801 3.74974 0.381038 3.74974 0.901768V1.24386L2.86102 1.24452C1.8571 1.2453 1.60908 1.28089 1.18714 1.48473C0.82939 1.65759 0.416361 2.06644 0.244555 2.41786C-0.0151065 2.94906 0.000753718 2.41626 0.000128686 10.6229C-0.000457282 17.923 0.00106624 18.0741 0.0770858 18.3714C0.17713 18.7626 0.346983 19.0576 0.641881 19.3525C0.936779 19.6474 1.23179 19.8172 1.62295 19.9173C1.92066 19.9934 2.07395 19.9948 10.0001 19.9948C17.9163 19.9948 18.0798 19.9933 18.3761 19.9176C18.7841 19.8132 19.0321 19.672 19.3385 19.3698C19.6516 19.061 19.8204 18.7726 19.923 18.3714C19.9991 18.0741 20.0006 17.923 20 10.6229C19.9994 2.41626 20.0152 2.94906 19.7556 2.41786C19.5857 2.07038 19.1709 1.65821 18.8174 1.48571C18.4008 1.28237 18.1436 1.2453 17.1434 1.24452L16.259 1.24386L16.2444 0.816295C16.2322 0.460925 16.2162 0.370608 16.1498 0.281541C15.8765 -0.0843765 15.4052 -0.0931661 15.1671 0.263259C15.0885 0.380882 15.0784 0.444206 15.0784 0.819928V1.24386H13.7698H12.4611V0.851961C12.4611 0.396937 12.4115 0.242594 12.2214 0.10704C12.0474 -0.0170684 11.7348 -0.0234359 11.5777 0.0938749C11.3437 0.268532 11.3098 0.35549 11.2955 0.816881L11.2823 1.24386H10.0001H8.71785L8.7046 0.816881C8.69034 0.35549 8.6564 0.268532 8.42244 0.0938749C8.26532 -0.0234359 7.95269 -0.0170684 7.77873 0.10704C7.58865 0.242594 7.539 0.396937 7.539 0.851961V1.24386H6.23033H4.92167V0.819928C4.92167 0.444206 4.91159 0.380882 4.833 0.263259C4.67365 0.0247307 4.37649 -0.064688 4.12085 0.0489507ZM3.7561 2.83574C3.77337 3.31818 3.82822 3.45151 4.06405 3.58406C4.34367 3.74121 4.67791 3.65504 4.84374 3.38299C4.90847 3.27685 4.9214 3.18583 4.92152 2.83574L4.92167 2.41579H6.23033H7.539L7.53915 2.83574C7.53927 3.18583 7.5522 3.27685 7.61693 3.38299C7.85491 3.77332 8.41584 3.75602 8.62304 3.35193C8.69652 3.20861 8.71093 3.11786 8.71093 2.79816V2.41579H10.0001H11.2892V2.79816C11.2892 3.11786 11.3036 3.20861 11.3771 3.35193C11.5843 3.75602 12.1452 3.77332 12.3832 3.38299C12.4479 3.27685 12.4609 3.18583 12.461 2.83574L12.4611 2.41579H13.7698H15.0784L15.0786 2.83574C15.0788 3.30904 15.1296 3.44475 15.3613 3.59027C15.5209 3.69051 15.835 3.67808 15.9861 3.56558C16.1816 3.42002 16.2278 3.28881 16.2441 2.83324L16.2592 2.41075L17.1826 2.42306L18.106 2.43532L18.3149 2.55103C18.5314 2.67096 18.7021 2.87648 18.7834 3.11501C18.8125 3.2004 18.8286 3.56636 18.8286 4.14045V5.03312H10.0001H1.17148V4.14045C1.17148 3.5605 1.18749 3.2013 1.21718 3.11501C1.28625 2.91445 1.42821 2.71936 1.57986 2.6167C1.8455 2.43689 1.95972 2.41931 2.87622 2.41751L3.7411 2.41579L3.7561 2.83574ZM18.8286 12.0968C18.8286 18.7173 18.8521 18.2073 18.5326 18.5268C18.21 18.8494 18.9749 18.8229 10.0001 18.8229C1.02522 18.8229 1.79014 18.8494 1.46755 18.5268C1.148 18.2073 1.17148 18.7173 1.17148 12.0968V6.20505H10.0001H18.8286V12.0968ZM3.12431 8.24617C3.05329 8.29453 2.95841 8.38372 2.91344 8.44439C2.83399 8.55162 2.83172 8.59479 2.83172 9.99435C2.83172 11.3939 2.83399 11.4371 2.91344 11.5443C2.95841 11.6049 3.05329 11.6941 3.12431 11.7424C3.25237 11.8296 3.26538 11.8303 4.66775 11.8303C6.07013 11.8303 6.08314 11.8296 6.21119 11.7424C6.28221 11.6941 6.3771 11.6049 6.42206 11.5443C6.50152 11.437 6.50379 11.3939 6.50379 9.99431C6.50379 8.59475 6.50152 8.55158 6.42206 8.44435C6.3771 8.38368 6.28221 8.29453 6.21119 8.24617C6.08314 8.15902 6.07013 8.15828 4.66775 8.15828C3.26538 8.15828 3.25237 8.15902 3.12431 8.24617ZM13.7889 8.24617C13.7179 8.29453 13.623 8.38368 13.5781 8.44435C13.4986 8.55158 13.4963 8.59475 13.4963 9.99431C13.4963 11.3939 13.4986 11.437 13.5781 11.5443C13.623 11.6049 13.7179 11.6941 13.7889 11.7424C13.917 11.8296 13.93 11.8303 15.3324 11.8303C16.7347 11.8303 16.7478 11.8296 16.8758 11.7424C16.9468 11.6941 17.0417 11.6049 17.0867 11.5443C17.1661 11.437 17.1684 11.3939 17.1684 9.99431C17.1684 8.59475 17.1661 8.55158 17.0867 8.44435C17.0417 8.38368 16.9468 8.29453 16.8758 8.24617C16.7478 8.15902 16.7347 8.15828 15.3324 8.15828C13.93 8.15828 13.917 8.15902 13.7889 8.24617ZM11.154 8.54986C11.0831 8.57182 10.7547 8.86898 10.3047 9.31853L9.57102 10.0515L9.30702 9.79258C9.16178 9.65019 8.98673 9.5055 8.91797 9.471C8.45619 9.23954 7.94085 9.72496 8.12743 10.2156C8.15028 10.2757 8.39978 10.558 8.68191 10.8429C9.2717 11.4385 9.41765 11.5245 9.6986 11.442C9.83576 11.4016 10.0259 11.2323 10.8344 10.4302C11.3685 9.90044 11.8299 9.41037 11.8598 9.34123C12.0537 8.89316 11.6192 8.40606 11.154 8.54986ZM5.35138 9.99431V10.6584H4.66775H3.98412V9.99431V9.33021H4.66775H5.35138V9.99431ZM16.016 9.99431V10.6584H15.3324H14.6487V9.99431V9.33021H15.3324H16.016V9.99431ZM3.23178 13.2134C3.0345 13.2851 2.96911 13.3447 2.88497 13.5296C2.82078 13.6708 2.81383 13.8143 2.81305 15.0156C2.81219 16.3177 2.81402 16.3489 2.90008 16.5196C2.96431 16.6469 3.03493 16.7176 3.16228 16.7818C3.33288 16.8678 3.36495 16.8697 4.66775 16.8697C5.97079 16.8697 6.00259 16.8678 6.17232 16.7818C6.27502 16.7297 6.37796 16.6381 6.42476 16.5571C6.50008 16.4268 6.50379 16.3546 6.50379 15.0141C6.50379 13.67 6.50027 13.6018 6.42429 13.4724C6.38054 13.398 6.28385 13.3013 6.20943 13.2576C6.08126 13.1823 6.00263 13.1776 4.72635 13.169C3.66665 13.1619 3.34726 13.1714 3.23178 13.2134ZM8.57885 13.198C8.51698 13.2171 8.42303 13.2731 8.37006 13.3225C8.16473 13.5143 8.16403 13.52 8.16403 15.0259C8.16403 16.416 8.16481 16.4295 8.25192 16.5575C8.30029 16.6286 8.38943 16.7234 8.4501 16.7684C8.55733 16.8479 8.6005 16.8501 10.0001 16.8501C11.3996 16.8501 11.4428 16.8479 11.55 16.7684C11.6107 16.7234 11.6998 16.6286 11.7482 16.5575C11.8354 16.4295 11.8361 16.4165 11.8361 15.0141C11.8361 13.6117 11.8354 13.5987 11.7482 13.4707C11.6998 13.3996 11.6107 13.3048 11.5501 13.2598C11.4436 13.1809 11.3928 13.1778 10.0656 13.1707C9.30979 13.1667 8.64077 13.179 8.57885 13.198ZM13.887 13.2163C13.6946 13.2855 13.5709 13.4231 13.5153 13.6295C13.4877 13.7321 13.477 14.244 13.4847 15.1036C13.498 16.6084 13.4994 16.6153 13.8278 16.7818C13.9975 16.8678 14.0293 16.8697 15.3324 16.8697C16.6352 16.8697 16.6672 16.8678 16.8378 16.7818C16.9652 16.7176 17.0358 16.6469 17.1 16.5196C17.1861 16.349 17.1879 16.3169 17.1879 15.0141C17.1879 13.0492 17.3172 13.1819 15.391 13.169C14.299 13.1617 14.0136 13.1707 13.887 13.2163ZM5.33185 15.0141V15.6782H4.66775H4.00366L3.99287 15.0547C3.9869 14.7118 3.99092 14.4082 4.00174 14.3799C4.01717 14.3397 4.1637 14.3309 4.67666 14.3393L5.33185 14.35V15.0141ZM10.6642 15.0141V15.6977H10.0001H9.33596V15.0141V14.3305H10.0001H10.6642V15.0141ZM15.9965 15.0141V15.6782H15.3324H14.6683L14.6575 15.0547C14.6515 14.7118 14.6555 14.4082 14.6664 14.3799C14.6818 14.3397 14.8283 14.3309 15.3413 14.3393L15.9965 14.35V15.0141Z" fill="#00A0EC"/>
</svg>
