<svg width="14" height="14" viewBox="0 0 14 14" fill="none" xmlns="http://www.w3.org/2000/svg">
<path d="M12.7369 2.09792H9.87258V1.63092C9.87258 0.795976 9.1933 0.116699 8.35836 0.116699H5.6356C4.80065 0.116699 4.12137 0.795976 4.12137 1.63092V2.09792H1.25709C1.04482 2.09792 0.875 2.26774 0.875 2.48001C0.875 2.69229 1.04482 2.86211 1.25709 2.86211H1.94769V11.8399C1.94769 12.9663 2.86471 13.8834 3.99118 13.8834H10.0028C11.1292 13.8834 12.0463 12.9663 12.0463 11.8399V2.86211H12.7369C12.9491 2.86211 13.119 2.69229 13.119 2.48001C13.119 2.26774 12.9491 2.09792 12.7369 2.09792ZM4.88556 1.63092C4.88556 1.21769 5.22237 0.880885 5.6356 0.880885H8.35836C8.77159 0.880885 9.10839 1.21769 9.10839 1.63092V2.09792H4.88556V1.63092ZM11.2821 11.8399C11.2821 12.5446 10.7075 13.1192 10.0028 13.1192H3.99118C3.28643 13.1192 2.71188 12.5446 2.71188 11.8399V2.86211H11.2849V11.8399H11.2821Z" fill="white"/>
<path d="M12.7369 2.09792H9.87258V1.63092C9.87258 0.795976 9.1933 0.116699 8.35836 0.116699H5.6356C4.80065 0.116699 4.12137 0.795976 4.12137 1.63092V2.09792H1.25709C1.04482 2.09792 0.875 2.26774 0.875 2.48001C0.875 2.69229 1.04482 2.86211 1.25709 2.86211H1.94769V11.8399C1.94769 12.9663 2.86471 13.8834 3.99118 13.8834H10.0028C11.1292 13.8834 12.0463 12.9663 12.0463 11.8399V2.86211H12.7369C12.9491 2.86211 13.119 2.69229 13.119 2.48001C13.119 2.26774 12.9491 2.09792 12.7369 2.09792ZM4.88556 1.63092C4.88556 1.21769 5.22237 0.880885 5.6356 0.880885H8.35836C8.77159 0.880885 9.10839 1.21769 9.10839 1.63092V2.09792H4.88556V1.63092ZM11.2821 11.8399C11.2821 12.5446 10.7075 13.1192 10.0028 13.1192H3.99118C3.28643 13.1192 2.71188 12.5446 2.71188 11.8399V2.86211H11.2849V11.8399H11.2821Z" fill="#1E212A" fill-opacity="0.8"/>
<path d="M12.7369 2.09792H9.87258V1.63092C9.87258 0.795976 9.1933 0.116699 8.35836 0.116699H5.6356C4.80065 0.116699 4.12137 0.795976 4.12137 1.63092V2.09792H1.25709C1.04482 2.09792 0.875 2.26774 0.875 2.48001C0.875 2.69229 1.04482 2.86211 1.25709 2.86211H1.94769V11.8399C1.94769 12.9663 2.86471 13.8834 3.99118 13.8834H10.0028C11.1292 13.8834 12.0463 12.9663 12.0463 11.8399V2.86211H12.7369C12.9491 2.86211 13.119 2.69229 13.119 2.48001C13.119 2.26774 12.9491 2.09792 12.7369 2.09792ZM4.88556 1.63092C4.88556 1.21769 5.22237 0.880885 5.6356 0.880885H8.35836C8.77159 0.880885 9.10839 1.21769 9.10839 1.63092V2.09792H4.88556V1.63092ZM11.2821 11.8399C11.2821 12.5446 10.7075 13.1192 10.0028 13.1192H3.99118C3.28643 13.1192 2.71188 12.5446 2.71188 11.8399V2.86211H11.2849V11.8399H11.2821Z" stroke="white" stroke-width="0.15"/>
<path d="M12.7369 2.09792H9.87258V1.63092C9.87258 0.795976 9.1933 0.116699 8.35836 0.116699H5.6356C4.80065 0.116699 4.12137 0.795976 4.12137 1.63092V2.09792H1.25709C1.04482 2.09792 0.875 2.26774 0.875 2.48001C0.875 2.69229 1.04482 2.86211 1.25709 2.86211H1.94769V11.8399C1.94769 12.9663 2.86471 13.8834 3.99118 13.8834H10.0028C11.1292 13.8834 12.0463 12.9663 12.0463 11.8399V2.86211H12.7369C12.9491 2.86211 13.119 2.69229 13.119 2.48001C13.119 2.26774 12.9491 2.09792 12.7369 2.09792ZM4.88556 1.63092C4.88556 1.21769 5.22237 0.880885 5.6356 0.880885H8.35836C8.77159 0.880885 9.10839 1.21769 9.10839 1.63092V2.09792H4.88556V1.63092ZM11.2821 11.8399C11.2821 12.5446 10.7075 13.1192 10.0028 13.1192H3.99118C3.28643 13.1192 2.71188 12.5446 2.71188 11.8399V2.86211H11.2849V11.8399H11.2821Z" stroke="#1E212A" stroke-opacity="0.8" stroke-width="0.15"/>
<path d="M6.99698 11.7493C7.20924 11.7493 7.37906 11.5794 7.37906 11.3672V4.61403C7.37906 4.40175 7.20924 4.23193 6.99698 4.23193C6.78471 4.23193 6.61489 4.40175 6.61489 4.61403V11.3643C6.61489 11.5766 6.78471 11.7493 6.99698 11.7493Z" fill="white"/>
<path d="M6.99698 11.7493C7.20924 11.7493 7.37906 11.5794 7.37906 11.3672V4.61403C7.37906 4.40175 7.20924 4.23193 6.99698 4.23193C6.78471 4.23193 6.61489 4.40175 6.61489 4.61403V11.3643C6.61489 11.5766 6.78471 11.7493 6.99698 11.7493Z" fill="#1E212A" fill-opacity="0.8"/>
<path d="M6.99698 11.7493C7.20924 11.7493 7.37906 11.5794 7.37906 11.3672V4.61403C7.37906 4.40175 7.20924 4.23193 6.99698 4.23193C6.78471 4.23193 6.61489 4.40175 6.61489 4.61403V11.3643C6.61489 11.5766 6.78471 11.7493 6.99698 11.7493Z" stroke="white" stroke-width="0.15"/>
<path d="M6.99698 11.7493C7.20924 11.7493 7.37906 11.5794 7.37906 11.3672V4.61403C7.37906 4.40175 7.20924 4.23193 6.99698 4.23193C6.78471 4.23193 6.61489 4.40175 6.61489 4.61403V11.3643C6.61489 11.5766 6.78471 11.7493 6.99698 11.7493Z" stroke="#1E212A" stroke-opacity="0.8" stroke-width="0.15"/>
<path d="M4.50354 11.3276C4.71582 11.3276 4.88563 11.1578 4.88563 10.9455V5.03297C4.88563 4.8207 4.71582 4.65088 4.50354 4.65088C4.29127 4.65088 4.12145 4.8207 4.12145 5.03297V10.9455C4.12145 11.1578 4.2941 11.3276 4.50354 11.3276Z" fill="white"/>
<path d="M4.50354 11.3276C4.71582 11.3276 4.88563 11.1578 4.88563 10.9455V5.03297C4.88563 4.8207 4.71582 4.65088 4.50354 4.65088C4.29127 4.65088 4.12145 4.8207 4.12145 5.03297V10.9455C4.12145 11.1578 4.2941 11.3276 4.50354 11.3276Z" fill="#1E212A" fill-opacity="0.8"/>
<path d="M4.50354 11.3276C4.71582 11.3276 4.88563 11.1578 4.88563 10.9455V5.03297C4.88563 4.8207 4.71582 4.65088 4.50354 4.65088C4.29127 4.65088 4.12145 4.8207 4.12145 5.03297V10.9455C4.12145 11.1578 4.2941 11.3276 4.50354 11.3276Z" stroke="white" stroke-width="0.15"/>
<path d="M4.50354 11.3276C4.71582 11.3276 4.88563 11.1578 4.88563 10.9455V5.03297C4.88563 4.8207 4.71582 4.65088 4.50354 4.65088C4.29127 4.65088 4.12145 4.8207 4.12145 5.03297V10.9455C4.12145 11.1578 4.2941 11.3276 4.50354 11.3276Z" stroke="#1E212A" stroke-opacity="0.8" stroke-width="0.15"/>
<path d="M9.49043 11.3276C9.7027 11.3276 9.87252 11.1578 9.87252 10.9455V5.03297C9.87252 4.8207 9.7027 4.65088 9.49043 4.65088C9.27816 4.65088 9.10834 4.8207 9.10834 5.03297V10.9455C9.10834 11.1578 9.27816 11.3276 9.49043 11.3276Z" fill="white"/>
<path d="M9.49043 11.3276C9.7027 11.3276 9.87252 11.1578 9.87252 10.9455V5.03297C9.87252 4.8207 9.7027 4.65088 9.49043 4.65088C9.27816 4.65088 9.10834 4.8207 9.10834 5.03297V10.9455C9.10834 11.1578 9.27816 11.3276 9.49043 11.3276Z" fill="#1E212A" fill-opacity="0.8"/>
<path d="M9.49043 11.3276C9.7027 11.3276 9.87252 11.1578 9.87252 10.9455V5.03297C9.87252 4.8207 9.7027 4.65088 9.49043 4.65088C9.27816 4.65088 9.10834 4.8207 9.10834 5.03297V10.9455C9.10834 11.1578 9.27816 11.3276 9.49043 11.3276Z" stroke="white" stroke-width="0.15"/>
<path d="M9.49043 11.3276C9.7027 11.3276 9.87252 11.1578 9.87252 10.9455V5.03297C9.87252 4.8207 9.7027 4.65088 9.49043 4.65088C9.27816 4.65088 9.10834 4.8207 9.10834 5.03297V10.9455C9.10834 11.1578 9.27816 11.3276 9.49043 11.3276Z" stroke="#1E212A" stroke-opacity="0.8" stroke-width="0.15"/>
</svg>
