<svg width="14" height="14" viewBox="0 0 14 14" fill="none" xmlns="http://www.w3.org/2000/svg">
<path d="M12.0518 0.961393C11.3462 0.257009 10.2035 0.257009 9.49791 0.961393L8.8586 1.6042L2.05329 8.4059L2.03883 8.42048C2.03532 8.42398 2.03532 8.42771 2.03159 8.42771C2.02436 8.43855 2.01352 8.44929 2.0064 8.46013C2.0064 8.46375 2.00267 8.46375 2.00267 8.46737C1.99544 8.47821 1.99193 8.48544 1.98459 8.49629C1.98109 8.49991 1.98109 8.50341 1.97747 8.50714C1.97386 8.51799 1.97024 8.52522 1.96651 8.53606C1.96651 8.53957 1.96301 8.53957 1.96301 8.5433L0.453114 13.0837C0.408821 13.213 0.442493 13.3561 0.539778 13.4521C0.608137 13.5195 0.700337 13.5573 0.796267 13.5569C0.835474 13.5562 0.874343 13.5501 0.911856 13.5388L5.44877 12.0253C5.45227 12.0253 5.45227 12.0253 5.456 12.0218C5.46741 12.0184 5.47837 12.0136 5.48843 12.0073C5.49126 12.0069 5.49374 12.0057 5.49578 12.0037C5.50651 11.9965 5.52097 11.9892 5.53182 11.9819C5.54255 11.9748 5.55351 11.964 5.56436 11.9567C5.56798 11.953 5.57148 11.953 5.57148 11.9495C5.57521 11.9459 5.58244 11.9424 5.58606 11.9351L13.0307 4.49043C13.7351 3.78481 13.7351 2.64213 13.0307 1.93662L12.0518 0.961393ZM5.33318 11.1764L2.81914 8.6625L9.11148 2.37016L11.6255 4.88409L5.33318 11.1764ZM2.46503 9.33073L4.66134 11.5269L1.36337 12.625L2.46503 9.33073ZM12.5214 3.98469L12.1385 4.37123L9.62434 1.85707L10.011 1.47064C10.4339 1.04806 11.1194 1.04806 11.5425 1.47064L12.5249 2.4531C12.9447 2.87794 12.9431 3.56187 12.5214 3.98469Z" fill="white"/>
<path d="M12.0518 0.961393C11.3462 0.257009 10.2035 0.257009 9.49791 0.961393L8.8586 1.6042L2.05329 8.4059L2.03883 8.42048C2.03532 8.42398 2.03532 8.42771 2.03159 8.42771C2.02436 8.43855 2.01352 8.44929 2.0064 8.46013C2.0064 8.46375 2.00267 8.46375 2.00267 8.46737C1.99544 8.47821 1.99193 8.48544 1.98459 8.49629C1.98109 8.49991 1.98109 8.50341 1.97747 8.50714C1.97386 8.51799 1.97024 8.52522 1.96651 8.53606C1.96651 8.53957 1.96301 8.53957 1.96301 8.5433L0.453114 13.0837C0.408821 13.213 0.442493 13.3561 0.539778 13.4521C0.608137 13.5195 0.700337 13.5573 0.796267 13.5569C0.835474 13.5562 0.874343 13.5501 0.911856 13.5388L5.44877 12.0253C5.45227 12.0253 5.45227 12.0253 5.456 12.0218C5.46741 12.0184 5.47837 12.0136 5.48843 12.0073C5.49126 12.0069 5.49374 12.0057 5.49578 12.0037C5.50651 11.9965 5.52097 11.9892 5.53182 11.9819C5.54255 11.9748 5.55351 11.964 5.56436 11.9567C5.56798 11.953 5.57148 11.953 5.57148 11.9495C5.57521 11.9459 5.58244 11.9424 5.58606 11.9351L13.0307 4.49043C13.7351 3.78481 13.7351 2.64213 13.0307 1.93662L12.0518 0.961393ZM5.33318 11.1764L2.81914 8.6625L9.11148 2.37016L11.6255 4.88409L5.33318 11.1764ZM2.46503 9.33073L4.66134 11.5269L1.36337 12.625L2.46503 9.33073ZM12.5214 3.98469L12.1385 4.37123L9.62434 1.85707L10.011 1.47064C10.4339 1.04806 11.1194 1.04806 11.5425 1.47064L12.5249 2.4531C12.9447 2.87794 12.9431 3.56187 12.5214 3.98469Z" fill="#1E212A" fill-opacity="0.8"/>
<path d="M12.0518 0.961393C11.3462 0.257009 10.2035 0.257009 9.49791 0.961393L8.8586 1.6042L2.05329 8.4059L2.03883 8.42048C2.03532 8.42398 2.03532 8.42771 2.03159 8.42771C2.02436 8.43855 2.01352 8.44929 2.0064 8.46013C2.0064 8.46375 2.00267 8.46375 2.00267 8.46737C1.99544 8.47821 1.99193 8.48544 1.98459 8.49629C1.98109 8.49991 1.98109 8.50341 1.97747 8.50714C1.97386 8.51799 1.97024 8.52522 1.96651 8.53606C1.96651 8.53957 1.96301 8.53957 1.96301 8.5433L0.453114 13.0837C0.408821 13.213 0.442493 13.3561 0.539778 13.4521C0.608137 13.5195 0.700337 13.5573 0.796267 13.5569C0.835474 13.5562 0.874343 13.5501 0.911856 13.5388L5.44877 12.0253C5.45227 12.0253 5.45227 12.0253 5.456 12.0218C5.46741 12.0184 5.47837 12.0136 5.48843 12.0073C5.49126 12.0069 5.49374 12.0057 5.49578 12.0037C5.50651 11.9965 5.52097 11.9892 5.53182 11.9819C5.54255 11.9748 5.55351 11.964 5.56436 11.9567C5.56798 11.953 5.57148 11.953 5.57148 11.9495C5.57521 11.9459 5.58244 11.9424 5.58606 11.9351L13.0307 4.49043C13.7351 3.78481 13.7351 2.64213 13.0307 1.93662L12.0518 0.961393ZM5.33318 11.1764L2.81914 8.6625L9.11148 2.37016L11.6255 4.88409L5.33318 11.1764ZM2.46503 9.33073L4.66134 11.5269L1.36337 12.625L2.46503 9.33073ZM12.5214 3.98469L12.1385 4.37123L9.62434 1.85707L10.011 1.47064C10.4339 1.04806 11.1194 1.04806 11.5425 1.47064L12.5249 2.4531C12.9447 2.87794 12.9431 3.56187 12.5214 3.98469Z" stroke="white" stroke-width="0.3"/>
<path d="M12.0518 0.961393C11.3462 0.257009 10.2035 0.257009 9.49791 0.961393L8.8586 1.6042L2.05329 8.4059L2.03883 8.42048C2.03532 8.42398 2.03532 8.42771 2.03159 8.42771C2.02436 8.43855 2.01352 8.44929 2.0064 8.46013C2.0064 8.46375 2.00267 8.46375 2.00267 8.46737C1.99544 8.47821 1.99193 8.48544 1.98459 8.49629C1.98109 8.49991 1.98109 8.50341 1.97747 8.50714C1.97386 8.51799 1.97024 8.52522 1.96651 8.53606C1.96651 8.53957 1.96301 8.53957 1.96301 8.5433L0.453114 13.0837C0.408821 13.213 0.442493 13.3561 0.539778 13.4521C0.608137 13.5195 0.700337 13.5573 0.796267 13.5569C0.835474 13.5562 0.874343 13.5501 0.911856 13.5388L5.44877 12.0253C5.45227 12.0253 5.45227 12.0253 5.456 12.0218C5.46741 12.0184 5.47837 12.0136 5.48843 12.0073C5.49126 12.0069 5.49374 12.0057 5.49578 12.0037C5.50651 11.9965 5.52097 11.9892 5.53182 11.9819C5.54255 11.9748 5.55351 11.964 5.56436 11.9567C5.56798 11.953 5.57148 11.953 5.57148 11.9495C5.57521 11.9459 5.58244 11.9424 5.58606 11.9351L13.0307 4.49043C13.7351 3.78481 13.7351 2.64213 13.0307 1.93662L12.0518 0.961393ZM5.33318 11.1764L2.81914 8.6625L9.11148 2.37016L11.6255 4.88409L5.33318 11.1764ZM2.46503 9.33073L4.66134 11.5269L1.36337 12.625L2.46503 9.33073ZM12.5214 3.98469L12.1385 4.37123L9.62434 1.85707L10.011 1.47064C10.4339 1.04806 11.1194 1.04806 11.5425 1.47064L12.5249 2.4531C12.9447 2.87794 12.9431 3.56187 12.5214 3.98469Z" stroke="#1E212A" stroke-opacity="0.8" stroke-width="0.3"/>
</svg>
