<svg width="6" height="10" viewBox="0 0 6 10" fill="none" xmlns="http://www.w3.org/2000/svg">
<path fill-rule="evenodd" clip-rule="evenodd" d="M1.19176 1.27835C0.936081 1.54661 0.93608 1.98156 1.19176 2.24983L3.93975 5.13311L1.19176 8.01639C0.93608 8.28465 0.936081 8.7196 1.19176 8.98786C1.44744 9.25613 1.86198 9.25613 2.11765 8.98786L5.27425 5.67587C5.41592 5.52722 5.47909 5.32739 5.46376 5.13311C5.47909 4.93882 5.41592 4.739 5.27425 4.59035L2.11765 1.27835C1.86198 1.01008 1.44744 1.01008 1.19176 1.27835Z" fill="#AFB6C6"/>
<path d="M1.19176 2.24983L1.28224 2.16359L1.19176 2.24983ZM1.19176 1.27835L1.10127 1.19211V1.19211L1.19176 1.27835ZM3.93975 5.13311L4.03023 5.21935L4.11243 5.13311L4.03023 5.04687L3.93975 5.13311ZM1.19176 8.01639L1.28224 8.10263H1.28224L1.19176 8.01639ZM1.19176 8.98786L1.28225 8.90162H1.28224L1.19176 8.98786ZM2.11765 8.98786L2.20814 9.0741L2.11765 8.98786ZM5.27425 5.67587L5.36473 5.76211H5.36473L5.27425 5.67587ZM5.46376 5.13311L5.33915 5.12327L5.33837 5.13311L5.33915 5.14294L5.46376 5.13311ZM5.27425 4.59035L5.36473 4.50411L5.27425 4.59035ZM2.11765 1.27835L2.20814 1.19211V1.19211L2.11765 1.27835ZM1.28224 2.16359C1.07258 1.9436 1.07259 1.58457 1.28224 1.36459L1.10127 1.19211C0.799576 1.50866 0.799575 2.01952 1.10127 2.33607L1.28224 2.16359ZM4.03023 5.04687L1.28224 2.16359L1.10127 2.33607L3.84926 5.21935L4.03023 5.04687ZM3.84926 5.04687L1.10127 7.93015L1.28224 8.10263L4.03023 5.21935L3.84926 5.04687ZM1.10127 7.93015C0.799575 8.2467 0.799576 8.75755 1.10127 9.0741L1.28224 8.90162C1.07259 8.68164 1.07258 8.32261 1.28224 8.10263L1.10127 7.93015ZM1.10127 9.0741C1.40621 9.39405 1.90321 9.39405 2.20814 9.0741L2.02717 8.90162C1.82074 9.11821 1.48867 9.11821 1.28225 8.90162L1.10127 9.0741ZM2.20814 9.0741L5.36473 5.76211L5.18376 5.58963L2.02717 8.90162L2.20814 9.0741ZM5.36473 5.76211C5.53257 5.586 5.6063 5.35052 5.58837 5.12327L5.33915 5.14294C5.35188 5.30427 5.29927 5.46843 5.18376 5.58963L5.36473 5.76211ZM5.18376 4.67659C5.29927 4.79778 5.35188 4.96194 5.33915 5.12327L5.58837 5.14294C5.6063 4.9157 5.53257 4.68021 5.36473 4.50411L5.18376 4.67659ZM2.02717 1.36459L5.18376 4.67659L5.36473 4.50411L2.20814 1.19211L2.02717 1.36459ZM1.28224 1.36459C1.48867 1.148 1.82074 1.148 2.02717 1.36459L2.20814 1.19211C1.90321 0.872162 1.40621 0.872162 1.10127 1.19211L1.28224 1.36459Z" fill="#AFB6C6"/>
</svg>
