<svg width="14" height="14" viewBox="0 0 14 14" fill="none" xmlns="http://www.w3.org/2000/svg">
<path d="M13.6295 5.01734C13.4721 4.84076 13.2571 4.72591 13.0229 4.6933V4.69281L9.36413 4.18739L7.91628 0.727763C7.70487 0.221369 7.12297 -0.0177554 6.6166 0.193657C6.3752 0.294452 6.18327 0.486362 6.0825 0.727763L4.63464 4.18739L0.975902 4.69281C0.430792 4.76868 0.0503996 5.27214 0.126277 5.81725C0.158886 6.05151 0.273738 6.26652 0.450323 6.42386L3.20693 8.88203L2.64053 12.7394C2.57917 13.131 2.75907 13.5213 3.09677 13.729C3.42972 13.9419 3.85799 13.934 4.18278 13.7089L6.99936 11.7934L9.81594 13.7108C10.2704 14.0193 10.8889 13.9009 11.1974 13.4464C11.3376 13.2399 11.395 12.9882 11.3582 12.7413L10.7919 8.88249L13.5485 6.42432C13.9594 6.05819 13.9956 5.42824 13.6295 5.01734ZM9.93935 8.32695C9.81602 8.43713 9.75637 8.60191 9.78053 8.7655L10.3705 12.8952L7.27714 10.792C7.11038 10.6787 6.89131 10.6787 6.72454 10.792L3.61299 12.8824L4.21819 8.76354C4.24169 8.60061 4.18206 8.43673 4.05937 8.32698L1.10957 5.6682L5.04658 5.12494C5.21896 5.10117 5.3659 4.98805 5.43299 4.82751L7.00524 1.09995C7.00702 1.10213 7.00835 1.10464 7.00918 1.10732L8.56521 4.82555C8.6323 4.98609 8.77927 5.09921 8.95162 5.12298L12.8936 5.69033L9.93935 8.32695Z" fill="white"/>
<path d="M13.6295 5.01734C13.4721 4.84076 13.2571 4.72591 13.0229 4.6933V4.69281L9.36413 4.18739L7.91628 0.727763C7.70487 0.221369 7.12297 -0.0177554 6.6166 0.193657C6.3752 0.294452 6.18327 0.486362 6.0825 0.727763L4.63464 4.18739L0.975902 4.69281C0.430792 4.76868 0.0503996 5.27214 0.126277 5.81725C0.158886 6.05151 0.273738 6.26652 0.450323 6.42386L3.20693 8.88203L2.64053 12.7394C2.57917 13.131 2.75907 13.5213 3.09677 13.729C3.42972 13.9419 3.85799 13.934 4.18278 13.7089L6.99936 11.7934L9.81594 13.7108C10.2704 14.0193 10.8889 13.9009 11.1974 13.4464C11.3376 13.2399 11.395 12.9882 11.3582 12.7413L10.7919 8.88249L13.5485 6.42432C13.9594 6.05819 13.9956 5.42824 13.6295 5.01734ZM9.93935 8.32695C9.81602 8.43713 9.75637 8.60191 9.78053 8.7655L10.3705 12.8952L7.27714 10.792C7.11038 10.6787 6.89131 10.6787 6.72454 10.792L3.61299 12.8824L4.21819 8.76354C4.24169 8.60061 4.18206 8.43673 4.05937 8.32698L1.10957 5.6682L5.04658 5.12494C5.21896 5.10117 5.3659 4.98805 5.43299 4.82751L7.00524 1.09995C7.00702 1.10213 7.00835 1.10464 7.00918 1.10732L8.56521 4.82555C8.6323 4.98609 8.77927 5.09921 8.95162 5.12298L12.8936 5.69033L9.93935 8.32695Z" fill="#1E212A" fill-opacity="0.8"/>
<path d="M13.6295 5.01734C13.4721 4.84076 13.2571 4.72591 13.0229 4.6933V4.69281L9.36413 4.18739L7.91628 0.727763C7.70487 0.221369 7.12297 -0.0177554 6.6166 0.193657C6.3752 0.294452 6.18327 0.486362 6.0825 0.727763L4.63464 4.18739L0.975902 4.69281C0.430792 4.76868 0.0503996 5.27214 0.126277 5.81725C0.158886 6.05151 0.273738 6.26652 0.450323 6.42386L3.20693 8.88203L2.64053 12.7394C2.57917 13.131 2.75907 13.5213 3.09677 13.729C3.42972 13.9419 3.85799 13.934 4.18278 13.7089L6.99936 11.7934L9.81594 13.7108C10.2704 14.0193 10.8889 13.9009 11.1974 13.4464C11.3376 13.2399 11.395 12.9882 11.3582 12.7413L10.7919 8.88249L13.5485 6.42432C13.9594 6.05819 13.9956 5.42824 13.6295 5.01734ZM9.93935 8.32695C9.81602 8.43713 9.75637 8.60191 9.78053 8.7655L10.3705 12.8952L7.27714 10.792C7.11038 10.6787 6.89131 10.6787 6.72454 10.792L3.61299 12.8824L4.21819 8.76354C4.24169 8.60061 4.18206 8.43673 4.05937 8.32698L1.10957 5.6682L5.04658 5.12494C5.21896 5.10117 5.3659 4.98805 5.43299 4.82751L7.00524 1.09995C7.00702 1.10213 7.00835 1.10464 7.00918 1.10732L8.56521 4.82555C8.6323 4.98609 8.77927 5.09921 8.95162 5.12298L12.8936 5.69033L9.93935 8.32695Z" stroke="white" stroke-width="0.15"/>
<path d="M13.6295 5.01734C13.4721 4.84076 13.2571 4.72591 13.0229 4.6933V4.69281L9.36413 4.18739L7.91628 0.727763C7.70487 0.221369 7.12297 -0.0177554 6.6166 0.193657C6.3752 0.294452 6.18327 0.486362 6.0825 0.727763L4.63464 4.18739L0.975902 4.69281C0.430792 4.76868 0.0503996 5.27214 0.126277 5.81725C0.158886 6.05151 0.273738 6.26652 0.450323 6.42386L3.20693 8.88203L2.64053 12.7394C2.57917 13.131 2.75907 13.5213 3.09677 13.729C3.42972 13.9419 3.85799 13.934 4.18278 13.7089L6.99936 11.7934L9.81594 13.7108C10.2704 14.0193 10.8889 13.9009 11.1974 13.4464C11.3376 13.2399 11.395 12.9882 11.3582 12.7413L10.7919 8.88249L13.5485 6.42432C13.9594 6.05819 13.9956 5.42824 13.6295 5.01734ZM9.93935 8.32695C9.81602 8.43713 9.75637 8.60191 9.78053 8.7655L10.3705 12.8952L7.27714 10.792C7.11038 10.6787 6.89131 10.6787 6.72454 10.792L3.61299 12.8824L4.21819 8.76354C4.24169 8.60061 4.18206 8.43673 4.05937 8.32698L1.10957 5.6682L5.04658 5.12494C5.21896 5.10117 5.3659 4.98805 5.43299 4.82751L7.00524 1.09995C7.00702 1.10213 7.00835 1.10464 7.00918 1.10732L8.56521 4.82555C8.6323 4.98609 8.77927 5.09921 8.95162 5.12298L12.8936 5.69033L9.93935 8.32695Z" stroke="#1E212A" stroke-opacity="0.8" stroke-width="0.15"/>
</svg>
